<?xml version="1.0" encoding="utf-8"?>
<!-- Generator: Adobe Illustrator 16.0.0, SVG Export Plug-In . SVG Version: 6.00 Build 0)  -->
<!DOCTYPE svg PUBLIC "-//W3C//DTD SVG 1.1//EN" "http://www.w3.org/Graphics/SVG/1.1/DTD/svg11.dtd">
<svg version="1.1" id="Layer_1" xmlns="http://www.w3.org/2000/svg" xmlns:xlink="http://www.w3.org/1999/xlink" x="0px" y="0px"
	 width="336.016px" height="142.547px" viewBox="0 0 336.016 142.547" enable-background="new 0 0 336.016 142.547"
	 xml:space="preserve">
<g>
	<path fill="#34495E" d="M30.583,29.253C40.157,10.106,57.177,0,79.516,0v29.253c-28.455-1.596-46.538,15.159-48.933,39.359v73.935
		H0V1.065h30.583V29.253z"/>
	<rect x="102.577" fill="#34495E" width="30.316" height="142.547"/>
	<polygon fill="#34495E" points="260.898,0.222 294.409,0.222 245.229,69.51 293.896,142.547 258.789,142.547 225.017,90.377 
		188.849,142.547 154.81,142.547 204.804,69.51 154.81,0.222 189.914,0.222 225.017,48.911 	"/>
	<path fill="#2ECC71" d="M336.016,128.253c0,8.32-5.763,14.294-13.445,14.294c-7.678,0-13.44-5.974-13.44-14.294
		c0-8.109,5.763-13.872,13.44-13.872C330.253,114.381,336.016,120.144,336.016,128.253z"/>
</g>
</svg>
